<svg xmlns="http://www.w3.org/2000/svg" xmlns:xlink="http://www.w3.org/1999/xlink" viewBox="0 0 500 112.57"><defs><linearGradient id="a" x1="116.94" y1="107.32" x2="59.15" y2="68.12" gradientUnits="userSpaceOnUse"><stop offset="0.06" stop-color="#f3ded5"/><stop offset="0.33" stop-color="#ecb5a2"/><stop offset="1" stop-color="#e06043"/></linearGradient></defs><title>Definedge logo</title><path d="M175.61,30.29c10.23,0,17.74,2.15,22.85,6.94,4.08,3.76,7.19,9.35,7.19,17.42,0,9.19-3.83,16.22-10,20.85-5.92,4.48-13.51,6.71-22.61,6.71h-22V79.26c6.07-.48,6.79-1.2,6.79-7.83V41.07c0-6.71-.88-7.35-6.79-7.83v-3ZM169,70.87c0,5.67,1.44,7.59,7.27,7.59,10.79,0,17-7.51,17-22.61,0-7.59-2.08-14.22-5.75-17.66-3.36-3.35-7.51-4.47-12.86-4.47-3,0-4.32.64-4.8,1.12-.72.72-.88,2.08-.88,4.39Z" fill="#fff"/><path d="M243.68,74.39c-4.87,7.19-11.26,8.78-14.62,8.78-10.7,0-16.78-7.91-16.78-17.41a21,21,0,0,1,6-14.38,17.9,17.9,0,0,1,12.47-5.6,13.1,13.1,0,0,1,13.18,13c0,1.35-.08,2.71-1,2.95-1.52.4-12.78,1-20.53,1.28.32,8.47,5,12.78,10.79,12.78a13.78,13.78,0,0,0,9.1-3.59ZM229.14,49.06c-3.2,0-5.91,3.75-6.39,10.07l9.67-.24c1.11-.08,1.59-.24,1.59-1.6C234.09,53.29,232.26,49.06,229.14,49.06Z" fill="#fff"/><path d="M253.51,46.74V45.07c0-5.44,3-11.11,7.59-14.71a18.16,18.16,0,0,1,9.82-4.15,10.17,10.17,0,0,1,6.95,2.24,3.24,3.24,0,0,1,.72,3.59,6.64,6.64,0,0,1-2.87,3.52c-1.36.8-2.16.56-3-.16-1.92-2-4.31-4.56-6.55-4.56s-2.48,2.16-2.4,12.47v3.43h7.35c.32.8,0,3.36-1.12,4h-6.23V73.51c0,4.95.56,5.35,5.68,6v2.71h-20.7V79.5c4.48-.64,4.72-1,4.72-6V50.74h-5.28l-.4-1,2.08-3Z" fill="#fff"/><path d="M277.07,82.21V79.5c4.32-.56,4.8-.88,4.8-6.55V57.37c0-5.35-.4-5.67-4.16-6.15V48.58a87.08,87.08,0,0,0,14.46-2.88V73c0,5.43.32,6,5,6.55v2.71Zm9.35-41.38a5.82,5.82,0,0,1-5.75-5.67,5.73,5.73,0,0,1,5.83-5.67,5.6,5.6,0,0,1,5.75,5.67A5.73,5.73,0,0,1,286.42,40.83Z" fill="#fff"/><path d="M323.73,82.21V79.5c3.36-.48,3.6-.8,3.6-6.31V59.53c0-5.68-2.8-7.43-5.6-7.43-2.07,0-3.83.79-6,2.39V73.83c0,4.87.32,5.19,3.6,5.67v2.71H300.8V79.5c4.16-.72,4.63-.8,4.63-6V56.89c0-4.79-.63-5-4.15-5.75V48.58a83.3,83.3,0,0,0,14.62-3c-.08,1.12-.16,3.92-.16,5.76,1.6-1.12,3.28-2.32,5.11-3.44,2.4-1.44,3.92-2.08,6.24-2.08,6.47,0,10.54,4.72,10.54,12.87v15.1c0,5,.48,5.19,4.32,5.75v2.71Z" fill="#fff"/><path d="M378.22,74.39c-4.88,7.19-11.27,8.78-14.62,8.78-10.71,0-16.78-7.91-16.78-17.41a21,21,0,0,1,6-14.38,17.89,17.89,0,0,1,12.46-5.6,13.11,13.11,0,0,1,13.19,13c0,1.35-.08,2.71-1,2.95-1.52.4-12.78,1-20.54,1.28.32,8.47,5,12.78,10.79,12.78a13.81,13.81,0,0,0,9.11-3.59ZM363.68,49.06c-3.2,0-5.92,3.75-6.4,10.07l9.67-.24c1.12-.08,1.6-.24,1.6-1.6C368.63,53.29,366.79,49.06,363.68,49.06Z" fill="#fff"/><path d="M425.19,80.14a132.61,132.61,0,0,0-15.66,3.11V78.62c-1.44,1-3.43,2.16-4.87,3.11a7.46,7.46,0,0,1-4,1.44,17.2,17.2,0,0,1-16.45-17.73c0-10.95,9.66-19.66,22.13-19.66a17.9,17.9,0,0,1,3.19.24V36.84c0-4.24-.4-4.64-5.35-5.28V28.93a110.55,110.55,0,0,0,15.74-2.72V72.15c0,4.31.48,4.71,3.51,5.11l1.76.24ZM409.53,53.37a6.21,6.21,0,0,0-6-4c-2.48,0-7.83,1.68-7.83,13.26,0,10.47,5.83,14.3,9.43,14.38a7.31,7.31,0,0,0,4.39-1.36Z" fill="#fff"/><path d="M440.45,69.75A4.79,4.79,0,0,0,439,72.47c0,1.28,1.52,3,4.56,3h9c4.88,0,12,2,12,9.83,0,9-11,16.22-21.65,16.22S427.75,96.36,427.75,92a4.94,4.94,0,0,1,2.39-4.39c2.16-1.52,4.24-2.88,6-4a11.56,11.56,0,0,1-6-4.47,7,7,0,0,1-1.27-4.4,24.6,24.6,0,0,0,8.62-5.83Zm3.84.8c-9.11,0-15-4.87-15-12.06,0-8.63,8.3-12.71,15.49-12.71a19.42,19.42,0,0,1,9,2.08,58.67,58.67,0,0,0,11-1.12l.4.64c-.48,1.44-1.52,4.08-3,5-1.36,0-3.59-.32-4.71-.4,1.2,1.43,1.91,3.51,1.91,6.55C459.46,66.48,452.12,70.55,444.29,70.55Zm.95,13.26c-4.07,0-6.07.48-7.27,1.52a5.84,5.84,0,0,0-2.23,4.4c0,4.23,4,7.5,10.86,7.5,6.15,0,10-2.87,10-7.19a5.54,5.54,0,0,0-4.4-5.51A25.37,25.37,0,0,0,445.24,83.81Zm-.88-35c-2.47,0-4.95,3-4.95,8.79,0,5.43,1.84,9.9,5.59,9.9,3.12,0,4.88-3.27,4.88-9C449.88,53.45,448.2,48.82,444.36,48.82Z" fill="#fff"/><path d="M498,74.39c-4.87,7.19-11.26,8.78-14.62,8.78-10.7,0-16.78-7.91-16.78-17.41a21,21,0,0,1,6-14.38A17.91,17.91,0,0,1,485,45.78a13.1,13.1,0,0,1,13.18,13c0,1.35-.08,2.71-1,2.95-1.51.4-12.78,1-20.53,1.28.32,8.47,5,12.78,10.79,12.78a13.78,13.78,0,0,0,9.1-3.59ZM483.43,49.06c-3.2,0-5.91,3.75-6.39,10.07l9.67-.24c1.11-.08,1.6-.24,1.6-1.6C488.38,53.29,486.55,49.06,483.43,49.06Z" fill="#fff"/><rect x="1.79" y="0.9" width="111.91" height="110.77" rx="13.34" fill="#d84728"/><path d="M105.11,36.1V20.61A11.88,11.88,0,0,0,93.24,8.75h-71A11.88,11.88,0,0,0,10.37,20.61V92a11.72,11.72,0,0,0,1.51,5.76C44.8,54.87,80.38,40.5,105.11,36.1Z" fill="none"/><path d="M22.24,103.82h71A11.88,11.88,0,0,0,105.11,92V36.1C80.38,40.5,44.8,54.87,11.88,97.72A11.88,11.88,0,0,0,22.24,103.82Z" fill="url(#a)"/><path d="M22.24,105.3h71A13.35,13.35,0,0,0,106.59,92V20.61A13.35,13.35,0,0,0,93.24,7.27h-71A13.34,13.34,0,0,0,8.9,20.61V92A13.38,13.38,0,0,0,22.24,105.3ZM10.37,92V20.61A11.88,11.88,0,0,1,22.24,8.75h71a11.88,11.88,0,0,1,11.87,11.86V92a11.88,11.88,0,0,1-11.87,11.86h-71a11.88,11.88,0,0,1-10.36-6.1A11.72,11.72,0,0,1,10.37,92Z" fill="#fff"/><path d="M32,70.85C33.44,57,35.49,49.68,37,46h-11c-.18,8.68,0,31.16,6.36,44.75A98.47,98.47,0,0,1,32,70.85Z" fill="#fff"/><path d="M41.45,36l-5.38-1.35,6.11-.83a10.23,10.23,0,0,0,.2-2A10,10,0,1,0,41.45,36Zm-6-8.1a1.67,1.67,0,1,1-1.67,1.67A1.67,1.67,0,0,1,35.44,27.87Z" fill="#fff"/><path d="M89.38,30.43c-5.95-9.67-28-8.41-45-7.57a14.82,14.82,0,0,1,2.67,11.93A14.28,14.28,0,0,1,46,38.08c-.08.19-.18.37-.28.56,12.61-3.24,32.74-5.79,36,6.89,4.71,18.12-28,37.77-48.49,45.19,10.47-2.37,31.5-8.31,44.41-20C95.35,54.61,95.41,40.23,89.38,30.43Z" fill="#fff"/></svg>